<?xml version="1.0" standalone="no"?>
<!DOCTYPE svg PUBLIC "-//W3C//DTD SVG 20010904//EN"
 "http://www.w3.org/TR/2001/REC-SVG-20010904/DTD/svg10.dtd">
<svg version="1.0" xmlns="http://www.w3.org/2000/svg"
 width="2609.000000pt" height="278.000000pt" viewBox="0 0 2609.000000 278.000000"
 preserveAspectRatio="xMidYMid meet">

<g transform="translate(0.000000,278.000000) scale(0.100000,-0.100000)"
fill="#000000" stroke="none">
<path d="M0 1885 l0 -895 210 0 c210 0 210 0 214 -22 30 -169 37 -193 77 -262
53 -89 124 -155 214 -201 89 -45 165 -64 289 -74 369 -29 626 110 644 350 13
179 -81 282 -332 364 -69 23 -199 56 -446 115 -118 28 -305 93 -385 133 -185
92 -314 226 -365 378 -68 201 -42 446 65 615 123 195 339 329 609 379 63 11
24 13 -361 14 l-433 1 0 -895z"/>
<path d="M1274 2764 c275 -50 498 -186 622 -380 73 -115 106 -214 124 -378 9
-80 9 -101 -2 -107 -7 -5 -104 -9 -215 -9 l-202 0 -6 38 c-23 159 -70 252
-162 323 -124 95 -340 131 -566 95 -217 -36 -347 -157 -347 -324 0 -178 104
-239 585 -347 338 -76 478 -124 633 -217 213 -127 326 -310 347 -564 8 -99
-14 -253 -50 -343 -79 -200 -247 -368 -461 -458 -89 -38 -212 -71 -305 -82
-41 -5 5411 -9 12374 -10 l12447 -1 0 25 0 25 -237 0 -238 0 -130 386 c-80
237 -144 410 -165 447 -78 136 -215 234 -356 257 -32 6 -186 10 -341 10 l-283
0 0 -550 0 -550 -225 0 -225 0 0 1345 0 1345 655 0 c800 0 886 -8 1063 -93 91
-43 224 -175 274 -272 135 -260 139 -568 9 -801 -68 -122 -173 -220 -309 -288
l-53 -27 41 -34 c83 -69 160 -179 215 -304 18 -42 74 -195 125 -341 51 -146
112 -319 136 -385 l43 -120 1 1353 0 1352 -12447 -1 c-10815 -1 -12438 -3
-12369 -15z m11636 -1159 l0 -1135 665 0 665 0 0 -210 0 -210 -885 0 -885 0 0
1348 0 1347 220 -3 220 -3 0 -1134z m7425 1116 c166 -28 330 -77 430 -129 393
-205 585 -595 585 -1185 0 -804 -338 -1243 -1032 -1342 -79 -11 -220 -15 -615
-15 l-513 0 0 1348 0 1347 537 -6 c335 -4 564 -11 608 -18z m-15141 -542 c192
-308 353 -558 357 -557 6 3 250 384 283 443 6 11 103 167 215 347 l204 328
269 0 270 0 -23 -37 c-13 -21 -50 -78 -82 -128 -33 -49 -182 -277 -332 -505
-149 -228 -337 -514 -417 -635 -80 -121 -150 -230 -156 -242 -9 -16 -12 -176
-12 -582 l0 -561 -220 0 -220 0 0 563 0 562 -109 165 c-60 91 -173 264 -253
385 -79 121 -200 304 -268 408 l-124 187 -528 0 -528 0 0 -1135 0 -1135 -220
0 -220 0 0 1135 0 1135 -410 0 -410 0 0 210 0 210 1293 0 1292 -1 349 -560z
m2206 -574 l0 -1135 605 0 605 0 0 -210 0 -210 -825 0 -825 0 0 1345 0 1345
220 0 220 0 0 -1135z m3390 925 l0 -210 -730 0 -730 0 0 -335 0 -335 685 0
685 0 0 -210 0 -210 -685 0 -685 0 0 -380 0 -380 760 0 760 0 0 -210 0 -210
-985 0 -985 0 0 1345 0 1345 955 0 955 0 0 -210z m5618 -2 l2 -208 -735 0
-735 0 0 -335 0 -335 685 0 685 0 0 -210 0 -210 -685 0 -685 0 0 -380 0 -380
879 0 c694 0 880 3 884 13 2 6 35 95 72 197 37 102 82 227 101 278 167 451
416 1126 626 1700 l30 82 220 -2 221 -3 27 -70 c38 -98 243 -624 410 -1050 78
-198 189 -481 247 -630 57 -148 129 -331 158 -405 50 -126 186 -476 201 -513
6 -16 -14 -17 -245 -17 -138 0 -251 2 -251 4 0 8 -237 661 -271 749 l-11 27
-477 0 -476 0 -74 -213 c-41 -116 -102 -292 -135 -389 l-61 -178 -1257 0
-1258 0 0 1345 0 1345 953 -2 952 -3 3 -207z m7152 2 l0 -210 -730 0 -730 0 0
-335 0 -335 685 0 685 0 0 -210 0 -210 -685 0 -685 0 0 -380 0 -380 760 0 760
0 0 -210 0 -210 -985 0 -985 0 0 1345 0 1345 955 0 955 0 0 -210z"/>
<path d="M19630 1396 l0 -926 263 0 c288 0 409 13 537 55 198 66 338 205 404
401 77 226 86 615 20 873 -52 209 -161 349 -333 428 -86 39 -100 43 -201 64
-77 16 -152 21 -392 26 l-298 6 0 -927z"/>
<path d="M17708 2062 c-20 -59 -75 -219 -123 -357 -134 -385 -165 -478 -161
-482 1 -2 154 -2 339 -1 l335 3 -84 230 c-47 127 -108 293 -135 370 -97 267
-120 330 -128 337 -3 4 -23 -41 -43 -100z"/>
<path d="M24340 1956 l0 -386 368 0 c388 0 500 8 604 40 74 23 148 80 177 139
30 57 44 153 38 244 -12 182 -78 264 -257 323 -49 16 -105 18 -492 22 l-438 3
0 -385z"/>
<path d="M1 418 l-1 -418 498 1 c325 1 469 4 417 10 -163 17 -341 69 -461 135
-243 134 -388 339 -439 619 -12 62 -13 24 -14 -347z"/>
</g>
</svg>
